<svg version="1" xmlns="http://www.w3.org/2000/svg" width="5689.333" height="5689.333" viewBox="0 0 4267.000000 4267.000000"><path d="M2058 1c-310 12.1-599.8 85.3-872 220.6-209.5 104-395.2 237.5-561 403.4-206.4 206.3-365.7 448-474 718.5C73.8 1536.7 25.1 1743.2 7.5 1952c-5.9 71.2-8 129.1-7.2 204.5.6 55.4 1.2 72.2 4.2 119 33.1 510.8 249.7 991.8 611.5 1357.9 103.2 104.4 211.5 193.9 333 275.1 314.3 210.1 676 332.1 1053 355 50.5 3 83.7 3.7 151.4 3.2 64.9-.5 79.6-1 127.6-4.2 547.3-37.1 1057-283.5 1429.3-691 325.2-355.9 519.6-810.4 552.2-1290.5 3.2-48.1 3.7-62.7 4.2-128.5.5-68.4-.1-99-3.2-150.5-14.8-243.3-71.5-483.2-167-706.5-146.4-341.9-380.1-640.4-677.5-865.2-273.4-206.6-592.8-344.4-928.5-400.7-86.3-14.5-159.9-22.3-258.5-27.7-25.6-1.4-145.3-2-174-.9zm765.5 991c15.4.6 37.9 1.7 50 2.5 218.6 15 399.1 81.5 540.5 199.2 158.4 131.9 253.4 312.1 284.9 540.3 2.4 17 6.1 49.9 6.1 53.5v2.5h-532.8l-.6-8.3c-.3-4.5-1-15.4-1.6-24.2-6.3-95.3-30.1-170.6-71.4-226.3-10.3-13.9-34-37.5-48.7-48.4-59.7-44.7-136.1-67.2-244.1-71.9-106.7-4.6-188.7 18-253.3 69.8-81.4 65.3-131.3 181-154 357.3-10 78-13.5 150.3-13.5 282 0 151.9 3.1 228.1 12.6 309 16.8 143.6 50.8 246.6 103.2 311.8 65.8 82 169.7 120.5 308.9 114.4 15.3-.7 34.1-1.9 41.8-2.7 139.7-14.7 233.8-73.7 279.4-175.2 19.9-44.4 32.1-96.8 36.1-155.3.6-9.1 1.3-19.3 1.6-22.8l.6-6.2h531.9l-.5 5.7c-.3 3.2-.8 10.1-1.1 15.3-2 32.9-8 79.1-15.1 115.2-35.5 180.9-128 336.5-265.4 446.3-119.4 95.4-272.4 159.3-444 185.4-96.8 14.8-204.9 18-304 9-112-10-213.6-35.8-305.6-77.5-187.9-85.1-336.8-241.3-423.3-443.8-53.5-125.4-85.6-269.3-96.5-432.6-3.7-54.3-4.1-73.2-4.1-185 0-112 .3-126.5 4-180 17.3-249.2 92.9-466.7 218.6-629.1 38.2-49.4 86.2-98.6 133.3-136.8 76.6-62 164.6-110.8 258.1-143 110.6-38.2 233.3-54.9 368-50.1zM1580 2133.5V3244h-515V1602.8l-2.6.6c-1.4.4-114.2 33.3-250.5 73.1-136.4 39.9-249.1 72.8-250.5 73.1l-2.4.6v-389.9l30.8-10.7c16.9-5.8 236.1-81.7 487.2-168.6l456.5-157.9h23.3l23.2-.1v1110.5z"/></svg>