<svg xmlns="http://www.w3.org/2000/svg" viewBox="0 0 1024 1024"><defs><style>.a{fill:#ec407a;}.b{opacity:0.75;}.c{fill:#b4004e;}.d{fill:#fafafa;}</style></defs><title>icon</title><circle class="a" cx="512" cy="512" r="512"/><g class="b"><path class="c" d="M1024,512a517.14,517.14,0,0,1-5.39,74.61,509.13,509.13,0,0,1-84.2,214.8q-14.35,20.93-30.69,40.31l-2.3,2.7a514.45,514.45,0,0,1-59.16,58.84q-10.05,8.5-20.54,16.46A509.8,509.8,0,0,1,512,1024c-3.72,0-7.42,0-11.12-.12L256,779l.36-.36h-.85V541.51L134.07,420.07l-.15.05V326.37l234-80.93h11.36v.85l98,98q26.31-47.08,70.25-74.55,51.27-32,118.65-32,97,0,156,51.09,7.07,6.12,13.39,12.8l187.87,187.87Q1024,500.7,1024,512Z"/></g><path class="d" d="M379.29,778.64H255.51v-394L133.92,420.12V326.37l234-80.93h11.36Z"/><path class="d" d="M888.16,598.1q-2.56,55.68-30,98.33t-77.08,66.1Q731.42,786,667.71,786q-105.12,0-165.53-68.48T441.75,524.13V497.76q0-78.36,27.29-137.14t78.55-90.83q51.27-32,118.65-32,97,0,156,51.09t67,140.81H761.09q-1.47-48.7-24.54-69.95t-70.31-21.24q-48,0-70.31,35.89T572.49,489v37.72q0,85.34,21.42,121.95t73.8,36.62q44.29,0,67.75-20.87t24.9-66.29Z"/></svg>